<?xml version="1.0" encoding="iso-8859-1"?>
<!-- Generator: Adobe Illustrator 19.0.0, SVG Export Plug-In . SVG Version: 6.00 Build 0)  -->
<svg version="1.1" id="Capa_1" xmlns="http://www.w3.org/2000/svg" xmlns:xlink="http://www.w3.org/1999/xlink" x="0px" y="0px"
	 viewBox="0 0 512 512" style="enable-background:new 0 0 512 512;" xml:space="preserve">
<path style="fill:#C6C5CA;" d="M301.444,376.943H127.946c-4.2,0-7.604-3.404-7.604-7.604c0-4.201,3.405-7.604,7.604-7.604h173.499
	c31.384,0,52.467-27.891,52.467-53.941c0-17.252-8.819-31.391-24.832-39.813c-5.929-3.118-12.562-4.765-19.182-4.765
	c-14.817,0-28.365,8.035-35.356,20.968c-2.415,4.467-3.692,9.491-3.692,14.529c0,11.283,6.158,21.62,16.071,26.978
	c3.352,1.813,7.121,2.77,10.9,2.77c8.466,0,16.223-4.621,20.244-12.06c1.348-2.496,2.033-5.186,2.033-7.998
	c0-6.214-3.391-11.907-8.85-14.857c-1.771-0.957-3.68-1.443-5.674-1.443c-4.412,0-8.454,2.407-10.548,6.281
	c-1.997,3.695-6.612,5.07-10.305,3.073c-3.695-1.997-5.07-6.612-3.073-10.305c4.754-8.794,13.923-14.258,23.928-14.258
	c4.481,0,8.944,1.132,12.906,3.272c10.379,5.611,16.826,16.431,16.826,28.238c0,5.287-1.335,10.554-3.862,15.229
	c-6.682,12.359-19.565,20.037-33.623,20.037c-6.297,0-12.567-1.591-18.133-4.6c-14.832-8.018-24.046-23.483-24.046-40.358
	c0-7.553,1.909-15.079,5.521-21.761c9.651-17.854,28.325-28.944,48.734-28.944c9.076,0,18.157,2.253,26.261,6.514
	c20.948,11.017,32.961,30.435,32.961,53.273c0,17.03-6.79,34.256-18.628,47.262C337.644,369.17,320.226,376.943,301.444,376.943z
	 M97.53,376.943H7.604c-4.2,0-7.604-3.404-7.604-7.604c0-4.201,3.405-7.604,7.604-7.604H97.53c4.2,0,7.604,3.404,7.604,7.604
	C105.134,373.54,101.729,376.943,97.53,376.943z"/>
<path style="fill:#ACABB1;" d="M444.325,456.789H421.9c-4.2,0-7.604-3.404-7.604-7.604s3.405-7.604,7.604-7.604h22.425
	c31.385,0,52.467-27.891,52.467-53.941c0-17.251-8.819-31.391-24.833-39.813c-5.929-3.119-12.563-4.767-19.183-4.767
	c-14.816,0-28.362,8.035-35.354,20.97c-2.415,4.468-3.692,9.493-3.692,14.531c0,11.281,6.158,21.618,16.071,26.976
	c3.352,1.813,7.121,2.77,10.9,2.77c8.467,0,16.223-4.621,20.245-12.06c1.349-2.496,2.034-5.186,2.034-7.998
	c0-6.213-3.391-11.906-8.85-14.857c-1.773-0.957-3.682-1.444-5.676-1.444c-4.411,0-8.453,2.407-10.546,6.282
	c-1.997,3.694-6.608,5.072-10.306,3.073c-3.695-1.997-5.07-6.611-3.074-10.305c4.754-8.795,13.922-14.258,23.927-14.258
	c4.48,0,8.944,1.132,12.906,3.273c10.38,5.612,16.828,16.431,16.828,28.238c0,5.288-1.336,10.555-3.864,15.23
	c-6.68,12.357-19.564,20.035-33.623,20.035c-6.297,0-12.567-1.591-18.133-4.6c-14.832-8.017-24.046-23.481-24.046-40.356
	c0-7.554,1.909-15.081,5.522-21.763c9.651-17.855,28.325-28.946,48.732-28.946c9.077,0,18.159,2.254,26.263,6.516
	C499.985,345.383,512,364.801,512,387.639c0,17.03-6.79,34.256-18.628,47.262C480.525,449.015,463.106,456.789,444.325,456.789z
	 M391.484,456.789H200.242c-4.2,0-7.604-3.404-7.604-7.604s3.405-7.604,7.604-7.604h191.242c4.2,0,7.604,3.404,7.604,7.604
	S395.684,456.789,391.484,456.789z"/>
<path style="fill:#91CC04;" d="M185.47,250.57c-21.46,67.164-84.964,55.367-143.627,16.567c-3.508-2.322-3.863-7.33-0.73-10.139
	C94.982,209.183,157.944,184.275,185.47,250.57z"/>
<path style="fill:#9CDD05;" d="M166.541,255.314c-5.461,17.26-14.726,33.317-30.204,42.573c-30.82,4.404-68.473-13.54-94.494-30.751
	c-3.508-2.322-3.863-7.33-0.73-10.139c20.449-18.151,47.722-37.546,74.206-44.368C140.872,214.175,156.724,231.661,166.541,255.314z
	"/>
<g>
	<path style="fill:#91CC04;" d="M249.193,239.011c-16.952,6.489-39.613,13.099-66.207,18.544
		c-7.797,1.602-15.948,3.103-24.384,4.461l-25.905,36.287c-5.992,0.517-12.126,0.243-18.26-0.608l23.33-32.667
		c-6.387,0.811-12.907,1.541-19.548,2.18l-23.938,25.803c-5.303-1.673-10.473-3.64-15.411-5.749l16.983-18.311
		c-12.035,0.73-24.364,1.125-36.926,1.125c-4.228,0-8.476-0.041-12.745-0.132c-1.602-1.014-3.052-1.957-4.339-2.808
		c-3.508-2.322-3.863-7.33-0.73-10.139c0.811-0.72,1.693-1.511,2.646-2.342c17.702,0.487,35.009,0.122,51.708-0.892l-21.18-22.143
		c4.299-2.748,8.821-5.424,13.485-7.908l27.304,28.551c7.351-0.679,14.559-1.49,21.596-2.393l-31.37-34.097
		c5.455-2.007,10.98-3.579,16.486-4.542l33.134,36.013c9.297-1.48,18.23-3.133,26.726-4.907
		c24.921-5.191,46.132-11.416,62.111-17.53c3.924-1.501,8.314,0.466,9.814,4.39C255.073,233.11,253.117,237.51,249.193,239.011z"/>
	<path style="fill:#91CC04;" d="M415.693,212.112c-1.176-0.132-2.464-0.264-3.843-0.436c-10.078-1.227-25.114-3.589-41.052-7.969
		c-5.374-1.48-10.859-3.204-16.283-5.171c-6.6-2.413-13.11-5.191-19.274-8.446c-4.745-2.504-9.267-5.282-13.454-8.344
		c-0.781-0.568-1.541-1.146-2.302-1.734c-2.504-1.957-4.867-4.035-7.057-6.235c-15.178-15.188-22.285-36.186-11.437-65.183
		c1.115-2.961,2.413-5.992,3.903-9.125c2.555-1.156,5.039-2.18,7.493-3.092c26.381-9.855,46.689-6.012,62.263,4.867
		c2.687,1.876,5.232,3.954,7.645,6.215c0.172,0.162,0.324,0.314,0.497,0.477c4.593,4.38,8.699,9.399,12.359,14.813
		c4.197,6.195,7.817,12.917,10.93,19.811c2.525,5.536,4.704,11.173,6.6,16.729c5.09,14.884,8.111,29.169,9.835,39.237
		c0.345,2.048,0.639,3.914,0.882,5.587C424.078,208.654,420.266,212.609,415.693,212.112z"/>
</g>
<path style="fill:#9CDD05;" d="M415.693,212.112c-33.927-3.802-79.293-14.253-103.264-38.335
	c-2.859-13.434-1.318-29.342,6.337-48.19c1.501-3.701,3.244-7.503,5.232-11.426c3.214-1.561,6.337-2.971,9.409-4.228
	c15.452-6.357,29.139-8.973,41.245-8.689c29.223,20.4,43.598,67.469,48.748,102.869
	C424.078,208.654,420.266,212.609,415.693,212.112z"/>
<path style="fill:#91CC04;" d="M248.894,56.125c17.673,9.035,39.62,22.621,63.495,40.257c7.005,5.167,14.186,10.695,21.46,16.559
	l48.443-5.481c4.803,4.493,9.066,9.68,12.86,15.288l-43.617,4.926c5.331,4.599,10.692,9.364,16.068,14.296l38.482,0.588
	c2.518,5.534,4.701,11.176,6.598,16.732l-27.305-0.414c9.396,9.249,18.734,18.982,27.92,29.194c3.092,3.437,6.166,6.92,9.213,10.456
	c0.348,2.044,0.642,3.912,0.891,5.581c0.678,4.549-3.134,8.501-7.708,8.009c-1.178-0.133-2.467-0.272-3.84-0.438
	c-12.551-14.746-25.505-28.548-38.542-41.381l-2.51,33.412c-5.378-1.485-10.861-3.203-16.291-5.178l3.24-43.076
	c-5.928-5.479-11.859-10.745-17.739-15.805l-4.775,50.437c-5.621-2.966-10.94-6.308-15.75-10.079l5.043-53.273
	c-8.003-6.475-15.879-12.528-23.535-18.136c-22.446-16.462-43.019-29.151-59.675-37.669c-4.09-2.092-5.701-7.099-3.609-11.189
	C239.796,55.659,244.805,54.032,248.894,56.125z"/>
<g>
</g>
<g>
</g>
<g>
</g>
<g>
</g>
<g>
</g>
<g>
</g>
<g>
</g>
<g>
</g>
<g>
</g>
<g>
</g>
<g>
</g>
<g>
</g>
<g>
</g>
<g>
</g>
<g>
</g>
</svg>
